<svg width="70" height="70" viewBox="0 0 70 70" fill="none" xmlns="http://www.w3.org/2000/svg">
<rect width="70" height="70" rx="10" fill="#FFD978"/>
<path d="M53.1761 53.9278H51.4708V15.0464C51.4708 13.9162 50.5546 13 49.4244 13H20.7749C19.6447 13 18.7285 13.9162 18.7285 15.0464V53.9278H17.0232C16.4581 53.9278 16 54.386 16 54.951V56.6564H54.1993V54.951C54.1993 54.386 53.7412 53.9278 53.1761 53.9278ZM26.9141 19.4802C26.9141 18.9152 27.3722 18.457 27.9373 18.457H31.3479C31.913 18.457 32.3711 18.9152 32.3711 19.4802V22.8909C32.3711 23.456 31.913 23.9141 31.3479 23.9141H27.9373C27.3722 23.9141 26.9141 23.456 26.9141 22.8909V19.4802ZM26.9141 27.6658C26.9141 27.1008 27.3722 26.6426 27.9373 26.6426H31.3479C31.913 26.6426 32.3711 27.1008 32.3711 27.6658V31.0765C32.3711 31.6415 31.913 32.0997 31.3479 32.0997H27.9373C27.3722 32.0997 26.9141 31.6415 26.9141 31.0765V27.6658ZM31.3479 40.2852H27.9373C27.3722 40.2852 26.9141 39.8271 26.9141 39.262V35.8514C26.9141 35.2863 27.3722 34.8282 27.9373 34.8282H31.3479C31.913 34.8282 32.3711 35.2863 32.3711 35.8514V39.262C32.3711 39.8271 31.913 40.2852 31.3479 40.2852ZM37.8282 53.9278H32.3711V46.7655C32.3711 46.2004 32.8293 45.7423 33.3943 45.7423H36.805C37.37 45.7423 37.8282 46.2004 37.8282 46.7655V53.9278ZM43.2852 39.262C43.2852 39.8271 42.8271 40.2852 42.262 40.2852H38.8514C38.2863 40.2852 37.8282 39.8271 37.8282 39.262V35.8514C37.8282 35.2863 38.2863 34.8282 38.8514 34.8282H42.262C42.8271 34.8282 43.2852 35.2863 43.2852 35.8514V39.262ZM43.2852 31.0765C43.2852 31.6415 42.8271 32.0997 42.262 32.0997H38.8514C38.2863 32.0997 37.8282 31.6415 37.8282 31.0765V27.6658C37.8282 27.1008 38.2863 26.6426 38.8514 26.6426H42.262C42.8271 26.6426 43.2852 27.1008 43.2852 27.6658V31.0765ZM43.2852 22.8909C43.2852 23.456 42.8271 23.9141 42.262 23.9141H38.8514C38.2863 23.9141 37.8282 23.456 37.8282 22.8909V19.4802C37.8282 18.9152 38.2863 18.457 38.8514 18.457H42.262C42.8271 18.457 43.2852 18.9152 43.2852 19.4802V22.8909Z" fill="black"/>
</svg>
