<svg width="70" height="70" viewBox="0 0 70 70" fill="none" xmlns="http://www.w3.org/2000/svg">
<rect width="70" height="70" rx="10" fill="#93E7FE"/>
<path d="M28.4 38.9C27.9451 38.9 27.5004 39.0349 27.1222 39.2876C26.744 39.5403 26.4492 39.8996 26.2751 40.3198C26.101 40.7401 26.0554 41.2026 26.1442 41.6487C26.2329 42.0949 26.452 42.5047 26.7737 42.8263C27.0953 43.148 27.5051 43.3671 27.9513 43.4558C28.3975 43.5446 28.8599 43.499 29.2802 43.3249C29.7004 43.1508 30.0597 42.856 30.3124 42.4778C30.5651 42.0996 30.7 41.6549 30.7 41.2C30.7 40.59 30.4577 40.005 30.0263 39.5737C29.595 39.1423 29.01 38.9 28.4 38.9ZM12.3 36.6C11.69 36.6 11.105 36.8423 10.6737 37.2737C10.2423 37.705 10 38.29 10 38.9V43.5C10 44.11 10.2423 44.695 10.6737 45.1263C11.105 45.5577 11.69 45.8 12.3 45.8C12.91 45.8 13.495 45.5577 13.9263 45.1263C14.3577 44.695 14.6 44.11 14.6 43.5V38.9C14.6 38.29 14.3577 37.705 13.9263 37.2737C13.495 36.8423 12.91 36.6 12.3 36.6ZM58.3 36.6C57.69 36.6 57.105 36.8423 56.6737 37.2737C56.2423 37.705 56 38.29 56 38.9V43.5C56 44.11 56.2423 44.695 56.6737 45.1263C57.105 45.5577 57.69 45.8 58.3 45.8C58.91 45.8 59.495 45.5577 59.9264 45.1263C60.3577 44.695 60.6 44.11 60.6 43.5V38.9C60.6 38.29 60.3577 37.705 59.9264 37.2737C59.495 36.8423 58.91 36.6 58.3 36.6ZM46.8 20.5H37.6V17.556C38.2952 17.1546 38.8733 16.5783 39.2768 15.8843C39.6803 15.1903 39.8952 14.4028 39.9 13.6C39.9 12.38 39.4154 11.21 38.5527 10.3473C37.69 9.48464 36.52 9 35.3 9C34.08 9 32.91 9.48464 32.0473 10.3473C31.1846 11.21 30.7 12.38 30.7 13.6C30.7048 14.4028 30.9197 15.1903 31.3232 15.8843C31.7267 16.5783 32.3048 17.1546 33 17.556V20.5H23.8C21.97 20.5 20.215 21.227 18.921 22.521C17.627 23.815 16.9 25.57 16.9 27.4V48.1C16.9 49.93 17.627 51.685 18.921 52.979C20.215 54.273 21.97 55 23.8 55H46.8C48.63 55 50.385 54.273 51.679 52.979C52.973 51.685 53.7 49.93 53.7 48.1V27.4C53.7 25.57 52.973 23.815 51.679 22.521C50.385 21.227 48.63 20.5 46.8 20.5ZM39.256 25.1L38.106 29.7H32.494L31.344 25.1H39.256ZM49.1 48.1C49.1 48.71 48.8577 49.295 48.4264 49.7263C47.995 50.1577 47.41 50.4 46.8 50.4H23.8C23.19 50.4 22.605 50.1577 22.1737 49.7263C21.7423 49.295 21.5 48.71 21.5 48.1V27.4C21.5 26.79 21.7423 26.205 22.1737 25.7737C22.605 25.3423 23.19 25.1 23.8 25.1H26.606L28.4 32.552C28.5259 33.0623 28.8228 33.5141 29.2413 33.8321C29.6598 34.1502 30.1746 34.3153 30.7 34.3H39.9C40.4254 34.3153 40.9402 34.1502 41.3587 33.8321C41.7772 33.5141 42.0741 33.0623 42.2 32.552L43.994 25.1H46.8C47.41 25.1 47.995 25.3423 48.4264 25.7737C48.8577 26.205 49.1 26.79 49.1 27.4V48.1ZM42.2 38.9C41.7451 38.9 41.3004 39.0349 40.9222 39.2876C40.544 39.5403 40.2492 39.8996 40.0751 40.3198C39.901 40.7401 39.8555 41.2026 39.9442 41.6487C40.0329 42.0949 40.252 42.5047 40.5737 42.8263C40.8953 43.148 41.3051 43.3671 41.7513 43.4558C42.1975 43.5446 42.6599 43.499 43.0802 43.3249C43.5004 43.1508 43.8597 42.856 44.1124 42.4778C44.3651 42.0996 44.5 41.6549 44.5 41.2C44.5 40.59 44.2577 40.005 43.8263 39.5737C43.395 39.1423 42.81 38.9 42.2 38.9Z" fill="black"/>
</svg>
