<svg width="70" height="70" viewBox="0 0 70 70" fill="none" xmlns="http://www.w3.org/2000/svg">
<rect width="70" height="70" rx="10" fill="#FFA666"/>
<path d="M20.7144 20.7143C20.7144 17.5584 23.2727 15 26.4286 15C29.5846 15 32.1429 17.5584 32.1429 20.7143C32.1429 22.5565 31.2712 24.195 29.9178 25.24C29.8771 25.27 29.8366 25.3004 29.7964 25.3311C28.852 26.0212 27.6879 26.4286 26.4286 26.4286C23.2727 26.4286 20.7144 23.8702 20.7144 20.7143Z" fill="#212121"/>
<path d="M40.0823 25.24C40.123 25.27 40.1635 25.3004 40.2037 25.3312C41.148 26.0213 42.3123 26.4286 43.5715 26.4286C46.7275 26.4286 49.2857 23.8702 49.2857 20.7143C49.2857 17.5584 46.7275 15 43.5715 15C40.4155 15 37.8572 17.5584 37.8572 20.7143C37.8572 22.5565 38.7289 24.195 40.0823 25.24Z" fill="#212121"/>
<path d="M30.0502 29.2857C31.0383 27.5777 32.885 26.4286 35.0001 26.4286C37.1151 26.4286 38.9619 27.5777 39.9499 29.2857C40.4361 30.1262 40.7143 31.102 40.7143 32.1429C40.7143 35.2988 38.156 37.8572 35.0001 37.8572C31.8441 37.8572 29.2858 35.2988 29.2858 32.1429C29.2858 31.102 29.564 30.1262 30.0502 29.2857Z" fill="#212121"/>
<path d="M19.2857 29.2856H26.9163C26.6004 30.1793 26.4286 31.141 26.4286 32.1428C26.4286 34.3381 27.2539 36.3406 28.6111 37.8571H27.8571C24.7567 37.8571 22.1177 39.8325 21.1299 42.5931C20.1586 42.1979 19.2599 41.6816 18.4633 41.0422C16.3113 39.315 15 36.7602 15 33.5714C15 31.2045 16.9187 29.2856 19.2857 29.2856Z" fill="#212121"/>
<path d="M42.1428 37.8571C45.2431 37.8571 47.8822 39.8324 48.8699 42.5931C49.8414 42.1979 50.7399 41.6816 51.5368 41.0422C53.6885 39.315 54.9999 36.7602 54.9999 33.5714C54.9999 31.2044 53.0811 29.2856 50.7142 29.2856H43.0837C43.3994 30.1793 43.5714 31.141 43.5714 32.1428C43.5714 34.3381 42.7459 36.3406 41.3888 37.8571H42.1428Z" fill="#212121"/>
<path d="M46.106 43.3657C46.3137 43.8694 46.4286 44.4214 46.4286 44.9999C46.4286 48.1888 45.1171 50.7437 42.9654 52.4708C40.8474 54.1708 38.0088 54.9999 35 54.9999C31.9912 54.9999 29.1526 54.1708 27.0347 52.4708C24.8828 50.7437 23.5714 48.1888 23.5714 44.9999C23.5714 44.4214 23.6861 43.8694 23.894 43.3657C24.5365 41.8094 26.0689 40.7142 27.8571 40.7142H42.1428C43.9311 40.7142 45.4634 41.8094 46.106 43.3657Z" fill="#212121"/>
</svg>
