<svg width="286" height="80" viewBox="0 0 286 80" fill="none" xmlns="http://www.w3.org/2000/svg">
<path fill-rule="evenodd" clip-rule="evenodd" d="M43.4536 16.6808C43.4536 25.8896 34.1776 42.1696 26.7744 42.1696C19.6408 42.1696 10.092 25.8896 10.092 16.6808C10.0928 7.468 17.5632 0 26.7752 0C35.9856 0 43.4536 7.468 43.4536 16.6808ZM66.0288 50.9841C64.12 54.6977 61.272 57.9305 58.7968 57.9305C56.4064 57.9305 53.532 54.6857 51.5952 50.9633C46.9776 53.5089 43.8448 58.4225 43.8448 64.0673C43.8448 72.3241 52.4016 74.4689 58.796 74.4689C65.432 74.4689 73.744 72.3241 73.744 64.0673C73.7448 58.4377 70.6288 53.5321 66.0288 50.9841ZM58.7968 52.0992C63.4432 52.0992 69.2632 41.8848 69.2632 36.104C69.2632 30.3208 64.576 25.6344 58.7968 25.6344C53.0128 25.6344 48.3264 30.3208 48.3264 36.104C48.3264 41.8848 54.3192 52.0992 58.7968 52.0992ZM37.3616 65.408C37.3616 57.3136 41.852 50.2696 48.472 46.6216C48.472 46.6216 44.6016 41.1112 39.6056 38.344C36.2216 44.9312 31.168 50.6648 26.7752 50.6648C22.5336 50.6648 17.4384 44.9112 14.004 38.3088C5.81037 42.8184 0.255173 51.536 0.255173 61.5512C0.255173 76.1976 15.4344 80 26.7752 80C32.3512 80 38.5928 79.1432 43.6192 76.6896C39.9488 74.3976 37.3616 70.8296 37.3616 65.408ZM81.2 26V54H100.36V50.52H85.2V26H81.2ZM105.117 52.84C106.77 53.7733 108.663 54.24 110.797 54.24C112.903 54.24 114.783 53.7733 116.437 52.84C118.117 51.9067 119.423 50.6267 120.357 49C121.317 47.3733 121.797 45.5067 121.797 43.4C121.797 41.2667 121.317 39.4 120.357 37.8C119.423 36.1733 118.117 34.9067 116.437 34C114.783 33.0667 112.903 32.6 110.797 32.6C108.663 32.6 106.77 33.0667 105.117 34C103.463 34.9067 102.157 36.1733 101.197 37.8C100.237 39.4267 99.7566 41.2933 99.7566 43.4C99.7566 45.48 100.237 47.3467 101.197 49C102.157 50.6267 103.463 51.9067 105.117 52.84ZM114.437 49.96C113.37 50.5733 112.157 50.88 110.797 50.88C109.437 50.88 108.223 50.5733 107.157 49.96C106.09 49.3467 105.237 48.48 104.597 47.36C103.957 46.2133 103.637 44.8933 103.637 43.4C103.637 41.88 103.957 40.5733 104.597 39.48C105.237 38.36 106.09 37.4933 107.157 36.88C108.223 36.2667 109.437 35.96 110.797 35.96C112.157 35.96 113.37 36.2667 114.437 36.88C115.53 37.4933 116.383 38.36 116.997 39.48C117.61 40.5733 117.917 41.88 117.917 43.4C117.917 44.8933 117.61 46.2133 116.997 47.36C116.383 48.48 115.53 49.3467 114.437 49.96ZM128.147 52.84C129.854 53.7733 131.787 54.24 133.947 54.24C135.867 54.24 137.574 53.8533 139.067 53.08C140.587 52.28 141.761 51.1467 142.587 49.68L139.667 47.84C138.974 48.88 138.121 49.6533 137.107 50.16C136.121 50.64 135.054 50.88 133.907 50.88C132.521 50.88 131.281 50.5733 130.187 49.96C129.094 49.3467 128.227 48.48 127.587 47.36C126.947 46.24 126.627 44.92 126.627 43.4C126.627 41.88 126.947 40.5733 127.587 39.48C128.227 38.36 129.094 37.4933 130.187 36.88C131.281 36.2667 132.521 35.96 133.907 35.96C135.054 35.96 136.121 36.2133 137.107 36.72C138.121 37.2 138.974 37.96 139.667 39L142.587 37.12C141.761 35.6267 140.587 34.5067 139.067 33.76C137.574 32.9867 135.867 32.6 133.947 32.6C131.787 32.6 129.854 33.0667 128.147 34C126.467 34.9067 125.147 36.1733 124.187 37.8C123.227 39.4267 122.747 41.2933 122.747 43.4C122.747 45.5067 123.227 47.3733 124.187 49C125.147 50.6267 126.467 51.9067 128.147 52.84ZM158.319 51.219V54H161.959V41.2C161.959 38.2933 161.172 36.1333 159.599 34.72C158.025 33.3067 155.785 32.6 152.879 32.6C151.199 32.6 149.585 32.84 148.039 33.32C146.519 33.7733 145.212 34.44 144.119 35.32L145.719 38.2C146.545 37.5067 147.559 36.96 148.759 36.56C149.959 36.1333 151.185 35.92 152.439 35.92C154.332 35.92 155.745 36.3733 156.679 37.28C157.639 38.16 158.119 39.4133 158.119 41.04V41.8H152.039C149.932 41.8 148.252 42.08 146.999 42.64C145.772 43.2 144.879 43.9467 144.319 44.88C143.785 45.8133 143.519 46.8533 143.519 48C143.519 49.2 143.839 50.28 144.479 51.24C145.119 52.1733 146.025 52.9067 147.199 53.44C148.399 53.9733 149.785 54.24 151.359 54.24C153.305 54.24 154.919 53.88 156.199 53.16C157.095 52.6372 157.802 51.9902 158.319 51.219ZM158.119 47.52V44.56H152.199C150.279 44.56 148.985 44.88 148.319 45.52C147.652 46.16 147.319 46.9333 147.319 47.84C147.319 48.88 147.732 49.72 148.559 50.36C149.385 50.9733 150.532 51.28 151.999 51.28C153.439 51.28 154.692 50.96 155.759 50.32C156.852 49.68 157.639 48.7467 158.119 47.52ZM166.665 24.32V54H170.505V24.32H166.665ZM175.997 26V54H195.157V50.52H179.997V26H175.997ZM196.787 32.8V54H200.627V32.8H196.787ZM196.827 28C197.334 28.48 197.96 28.72 198.707 28.72C199.48 28.72 200.107 28.48 200.587 28C201.067 27.4933 201.307 26.88 201.307 26.16C201.307 25.4667 201.054 24.8933 200.547 24.44C200.067 23.96 199.454 23.72 198.707 23.72C197.96 23.72 197.334 23.96 196.827 24.44C196.347 24.92 196.107 25.52 196.107 26.24C196.107 26.9333 196.347 27.52 196.827 28ZM221.439 33.6C220.132 32.9333 218.612 32.6 216.879 32.6C214.959 32.6 213.279 32.9867 211.839 33.76C210.764 34.3371 209.898 35.0849 209.239 36.0035V32.8H205.559V54H209.399V43.08C209.399 41.5333 209.665 40.24 210.199 39.2C210.759 38.16 211.545 37.3733 212.559 36.84C213.572 36.3067 214.759 36.04 216.119 36.04C217.932 36.04 219.332 36.56 220.319 37.6C221.332 38.64 221.839 40.1867 221.839 42.24V54H225.679V41.8C225.679 39.72 225.305 38 224.559 36.64C223.812 35.28 222.772 34.2667 221.439 33.6ZM234.225 48.2073V54H230.385V24.32H234.225V43.3746L245.785 32.8H250.425L241.507 41.5662L251.305 54H246.585L238.611 44.1093L234.225 48.2073ZM255.214 52.84C256.948 53.7733 258.948 54.24 261.214 54.24C262.974 54.24 264.561 53.9467 265.974 53.36C267.414 52.7733 268.614 51.92 269.574 50.8L267.454 48.32C266.681 49.1733 265.774 49.8133 264.734 50.24C263.721 50.6667 262.588 50.88 261.334 50.88C259.814 50.88 258.468 50.5733 257.294 49.96C256.121 49.3467 255.201 48.4933 254.534 47.4C254.062 46.5732 253.764 45.6666 253.64 44.68H270.854C270.881 44.4933 270.894 44.2933 270.894 44.08C270.921 43.8667 270.934 43.68 270.934 43.52C270.934 41.3333 270.481 39.4267 269.574 37.8C268.694 36.1467 267.468 34.8667 265.894 33.96C264.321 33.0533 262.508 32.6 260.454 32.6C258.428 32.6 256.601 33.0667 254.974 34C253.374 34.9067 252.108 36.1733 251.174 37.8C250.268 39.4267 249.814 41.2933 249.814 43.4C249.814 45.5067 250.281 47.3733 251.214 49C252.174 50.6267 253.508 51.9067 255.214 52.84ZM253.633 41.92C253.745 40.9518 254.019 40.0718 254.454 39.28C255.041 38.1867 255.854 37.3467 256.894 36.76C257.934 36.1467 259.121 35.84 260.454 35.84C261.814 35.84 263.001 36.1467 264.014 36.76C265.054 37.3467 265.868 38.1733 266.454 39.24C266.899 40.049 267.168 40.9423 267.26 41.92H253.633ZM273.867 32.8V54H277.707V43.44C277.707 41.12 278.307 39.3467 279.507 38.12C280.707 36.8933 282.333 36.28 284.387 36.28H284.787C284.947 36.28 285.107 36.2933 285.267 36.32V32.6C283.24 32.6 281.533 32.9867 280.147 33.76C279.012 34.3926 278.146 35.2572 277.547 36.3538V32.8H273.867Z" fill="black"/>
</svg>
